<mxfile host="app.diagrams.net" agent="Mozilla/5.0 (Windows NT 10.0; Win64; x64) AppleWebKit/537.36 (KHTML, like Gecko) Chrome/128.0.0.0 Safari/537.36" version="24.7.10">
  <diagram name="Trang-1" id="ISWLFxNix_QhMm1Ln9Wf">
    <mxGraphModel dx="1434" dy="738" grid="0" gridSize="10" guides="1" tooltips="1" connect="1" arrows="1" fold="1" page="1" pageScale="1" pageWidth="827" pageHeight="1169" math="0" shadow="0">
      <root>
        <mxCell id="0" />
        <mxCell id="1" parent="0" />
        <mxCell id="dvLhE6fg0ZCrLmOuBGpx-1" value="High Level Diagram" style="text;html=1;align=center;verticalAlign=middle;resizable=0;points=[];autosize=1;strokeColor=none;fillColor=none;fontStyle=1" parent="1" vertex="1">
          <mxGeometry x="64" y="102" width="123" height="26" as="geometry" />
        </mxCell>
        <mxCell id="rKEjl-j82sjy5_hP4zZS-8" value="" style="edgeStyle=orthogonalEdgeStyle;rounded=0;orthogonalLoop=1;jettySize=auto;html=1;" edge="1" parent="1" source="rKEjl-j82sjy5_hP4zZS-1" target="rKEjl-j82sjy5_hP4zZS-7">
          <mxGeometry relative="1" as="geometry" />
        </mxCell>
        <mxCell id="rKEjl-j82sjy5_hP4zZS-1" value="&lt;b&gt;Client &lt;/b&gt;(Browser)" style="rounded=1;whiteSpace=wrap;html=1;fillColor=#dae8fc;strokeColor=#6c8ebf;" vertex="1" parent="1">
          <mxGeometry x="90" y="300" width="80" height="60" as="geometry" />
        </mxCell>
        <mxCell id="rKEjl-j82sjy5_hP4zZS-7" value="&lt;b&gt;Frontend &lt;/b&gt;(Javascript)" style="whiteSpace=wrap;html=1;rounded=1;fillColor=#fff2cc;strokeColor=#d6b656;" vertex="1" parent="1">
          <mxGeometry x="250" y="300" width="110" height="60" as="geometry" />
        </mxCell>
        <mxCell id="rKEjl-j82sjy5_hP4zZS-13" value="&lt;b&gt;Backend&lt;br&gt;&lt;/b&gt;(Java SpringBoot)" style="whiteSpace=wrap;html=1;rounded=1;fillColor=#d5e8d4;strokeColor=#82b366;" vertex="1" parent="1">
          <mxGeometry x="500" y="300" width="168.5" height="60" as="geometry" />
        </mxCell>
        <mxCell id="rKEjl-j82sjy5_hP4zZS-15" value="&lt;div&gt;&lt;b&gt;&lt;span class=&quot;hljs-keyword&quot;&gt;Authorization&lt;/span&gt;&lt;br&gt;&lt;/b&gt;&lt;/div&gt;(Google OAuth2)&amp;nbsp;" style="whiteSpace=wrap;html=1;rounded=1;fillColor=#e1d5e7;strokeColor=#9673a6;" vertex="1" parent="1">
          <mxGeometry x="524.25" y="181" width="120" height="60" as="geometry" />
        </mxCell>
        <mxCell id="rKEjl-j82sjy5_hP4zZS-25" value="&lt;div&gt;&lt;br&gt;&lt;b&gt;Database&amp;nbsp;&lt;/b&gt;(MySQL)&amp;nbsp;&lt;div&gt;&lt;br&gt;&lt;/div&gt;&lt;/div&gt;" style="shape=cylinder3;whiteSpace=wrap;html=1;boundedLbl=1;backgroundOutline=1;size=15;fillColor=#dae8fc;strokeColor=#6c8ebf;" vertex="1" parent="1">
          <mxGeometry x="514.25" y="419" width="140" height="80" as="geometry" />
        </mxCell>
        <mxCell id="rKEjl-j82sjy5_hP4zZS-35" value="API endpoints" style="text;html=1;align=center;verticalAlign=middle;resizable=0;points=[];autosize=1;strokeColor=none;fillColor=none;" vertex="1" parent="1">
          <mxGeometry x="380" y="305" width="100" height="30" as="geometry" />
        </mxCell>
        <mxCell id="rKEjl-j82sjy5_hP4zZS-37" value="" style="endArrow=classic;startArrow=classic;html=1;rounded=0;entryX=0.5;entryY=1;entryDx=0;entryDy=0;exitX=0.5;exitY=0;exitDx=0;exitDy=0;" edge="1" parent="1" source="rKEjl-j82sjy5_hP4zZS-13" target="rKEjl-j82sjy5_hP4zZS-15">
          <mxGeometry width="50" height="50" relative="1" as="geometry">
            <mxPoint x="487.5" y="287.5" as="sourcePoint" />
            <mxPoint x="537.5" y="237.5" as="targetPoint" />
          </mxGeometry>
        </mxCell>
        <mxCell id="rKEjl-j82sjy5_hP4zZS-39" value="" style="endArrow=classic;startArrow=classic;html=1;rounded=0;exitX=1;exitY=0.5;exitDx=0;exitDy=0;" edge="1" parent="1" source="rKEjl-j82sjy5_hP4zZS-7" target="rKEjl-j82sjy5_hP4zZS-13">
          <mxGeometry width="50" height="50" relative="1" as="geometry">
            <mxPoint x="390" y="310" as="sourcePoint" />
            <mxPoint x="440" y="260" as="targetPoint" />
          </mxGeometry>
        </mxCell>
        <mxCell id="rKEjl-j82sjy5_hP4zZS-40" value="" style="endArrow=classic;startArrow=classic;html=1;rounded=0;exitX=0.5;exitY=0;exitDx=0;exitDy=0;exitPerimeter=0;entryX=0.5;entryY=1;entryDx=0;entryDy=0;" edge="1" parent="1" source="rKEjl-j82sjy5_hP4zZS-25" target="rKEjl-j82sjy5_hP4zZS-13">
          <mxGeometry width="50" height="50" relative="1" as="geometry">
            <mxPoint x="537.5" y="410" as="sourcePoint" />
            <mxPoint x="587.5" y="360" as="targetPoint" />
          </mxGeometry>
        </mxCell>
        <mxCell id="rKEjl-j82sjy5_hP4zZS-41" value="Data Model" style="text;html=1;align=center;verticalAlign=middle;resizable=0;points=[];autosize=1;strokeColor=none;fillColor=none;fontStyle=1" vertex="1" parent="1">
          <mxGeometry x="74" y="527" width="79" height="26" as="geometry" />
        </mxCell>
        <mxCell id="rKEjl-j82sjy5_hP4zZS-42" value="List" style="swimlane;fontStyle=0;childLayout=stackLayout;horizontal=1;startSize=30;horizontalStack=0;resizeParent=1;resizeParentMax=0;resizeLast=0;collapsible=1;marginBottom=0;whiteSpace=wrap;html=1;" vertex="1" parent="1">
          <mxGeometry x="342" y="520" width="140" height="120" as="geometry" />
        </mxCell>
        <mxCell id="rKEjl-j82sjy5_hP4zZS-43" value="Item 1" style="text;strokeColor=none;fillColor=none;align=left;verticalAlign=middle;spacingLeft=4;spacingRight=4;overflow=hidden;points=[[0,0.5],[1,0.5]];portConstraint=eastwest;rotatable=0;whiteSpace=wrap;html=1;" vertex="1" parent="rKEjl-j82sjy5_hP4zZS-42">
          <mxGeometry y="30" width="140" height="30" as="geometry" />
        </mxCell>
        <mxCell id="rKEjl-j82sjy5_hP4zZS-44" value="Item 2" style="text;strokeColor=none;fillColor=none;align=left;verticalAlign=middle;spacingLeft=4;spacingRight=4;overflow=hidden;points=[[0,0.5],[1,0.5]];portConstraint=eastwest;rotatable=0;whiteSpace=wrap;html=1;" vertex="1" parent="rKEjl-j82sjy5_hP4zZS-42">
          <mxGeometry y="60" width="140" height="30" as="geometry" />
        </mxCell>
        <mxCell id="rKEjl-j82sjy5_hP4zZS-45" value="Item 3" style="text;strokeColor=none;fillColor=none;align=left;verticalAlign=middle;spacingLeft=4;spacingRight=4;overflow=hidden;points=[[0,0.5],[1,0.5]];portConstraint=eastwest;rotatable=0;whiteSpace=wrap;html=1;" vertex="1" parent="rKEjl-j82sjy5_hP4zZS-42">
          <mxGeometry y="90" width="140" height="30" as="geometry" />
        </mxCell>
      </root>
    </mxGraphModel>
  </diagram>
</mxfile>
